<svg width="24" height="24" viewBox="0 0 24 24" fill="none" xmlns="http://www.w3.org/2000/svg">
<mask id="mask0_20_7" style="mask-type:alpha" maskUnits="userSpaceOnUse" x="0" y="0" width="24" height="24">
<rect width="24" height="24" fill="#D9D9D9"/>
</mask>
<g mask="url(#mask0_20_7)">
<path d="M4 9C3.71667 9 3.47933 8.904 3.288 8.712C3.096 8.52067 3 8.28334 3 8C3 7.71667 3.096 7.479 3.288 7.287C3.47933 7.09567 3.71667 7 4 7H7C7.55 7 8.02067 7.19567 8.412 7.587C8.804 7.979 9 8.45 9 9H4ZM6 20C4.61667 20 3.43767 19.5127 2.463 18.538C1.48767 17.5627 1 16.3833 1 15C1 13.6167 1.48767 12.4373 2.463 11.462C3.43767 10.4873 4.61667 10 6 10C6.53333 10 7.05433 10.0833 7.563 10.25C8.071 10.4167 8.53333 10.6667 8.95 11H11C11.55 11 12.021 10.804 12.413 10.412C12.8043 10.0207 13 9.55 13 9V6.7L11.95 5.65L10.55 7.05L9.8 6.35L13.35 2.8L14.05 3.5L12.65 4.9L13.7 6H20C20.55 6 21.021 6.196 21.413 6.588C21.8043 6.97934 22 7.45 22 8V14.05C22.3333 14.3833 22.5833 14.7583 22.75 15.175C22.9167 15.5917 23 16.0333 23 16.5C23 17.4667 22.6583 18.2917 21.975 18.975C21.2917 19.6583 20.4667 20 19.5 20C18.5333 20 17.7083 19.6583 17.025 18.975C16.3417 18.2917 16 17.4667 16 16.5V16H10.9C10.6667 17.1667 10.0917 18.125 9.175 18.875C8.25833 19.625 7.2 20 6 20ZM6 18C6.83333 18 7.54167 17.7083 8.125 17.125C8.70833 16.5417 9 15.8333 9 15C9 14.1667 8.70833 13.4583 8.125 12.875C7.54167 12.2917 6.83333 12 6 12C5.16667 12 4.45833 12.2917 3.875 12.875C3.29167 13.4583 3 14.1667 3 15C3 15.8333 3.29167 16.5417 3.875 17.125C4.45833 17.7083 5.16667 18 6 18ZM19.5 18C19.9167 18 20.2707 17.854 20.562 17.562C20.854 17.2707 21 16.9167 21 16.5C21 16.0833 20.854 15.7293 20.562 15.438C20.2707 15.146 19.9167 15 19.5 15C19.0833 15 18.7293 15.146 18.438 15.438C18.146 15.7293 18 16.0833 18 16.5C18 16.9167 18.146 17.2707 18.438 17.562C18.7293 17.854 19.0833 18 19.5 18ZM6 16.5C5.58333 16.5 5.22933 16.354 4.938 16.062C4.646 15.7707 4.5 15.4167 4.5 15C4.5 14.5833 4.646 14.2293 4.938 13.938C5.22933 13.646 5.58333 13.5 6 13.5C6.41667 13.5 6.77067 13.646 7.062 13.938C7.354 14.2293 7.5 14.5833 7.5 15C7.5 15.4167 7.354 15.7707 7.062 16.062C6.77067 16.354 6.41667 16.5 6 16.5ZM10.9 14H17.05C17.3833 13.6667 17.7543 13.4167 18.163 13.25C18.571 13.0833 19.0167 13 19.5 13H20V8H15V9C15 10.1 14.6083 11.0417 13.825 11.825C13.0417 12.6083 12.1 13 11 13H10.6C10.65 13.15 10.7043 13.3083 10.763 13.475C10.821 13.6417 10.8667 13.8167 10.9 14Z" fill="#1C1B1F"/>
</g>
</svg>
